<mxfile host="app.diagrams.net" modified="2024-06-01T19:04:03.352Z" agent="Mozilla/5.0 (X11; Linux x86_64) AppleWebKit/537.36 (KHTML, like Gecko) Chrome/125.0.0.0 Safari/537.36" etag="GLKmlBTFiVPuIs2JdhFr" version="24.4.13" type="google">
  <diagram name="Page-1" id="03018318-947c-dd8e-b7a3-06fadd420f32">
    <mxGraphModel grid="1" page="1" gridSize="10" guides="1" tooltips="1" connect="1" arrows="1" fold="1" pageScale="1" pageWidth="1100" pageHeight="850" background="#ffffff" math="0" shadow="0">
      <root>
        <mxCell id="0" />
        <mxCell id="1" parent="0" />
        <mxCell id="QQcn5EloVubQ2tBEO6B_-33" value="" style="rounded=1;whiteSpace=wrap;html=1;fillColor=#dae8fc;strokeColor=#6c8ebf;" vertex="1" parent="1">
          <mxGeometry x="771" y="717.5" width="250" height="75" as="geometry" />
        </mxCell>
        <mxCell id="ZyAtSVCC6lzZeVUkMO0P-5" value="" style="rounded=0;whiteSpace=wrap;html=1;fillColor=#f5f5f5;fontColor=#333333;strokeColor=#666666;" vertex="1" parent="1">
          <mxGeometry y="880" width="1100" height="190" as="geometry" />
        </mxCell>
        <mxCell id="ZyAtSVCC6lzZeVUkMO0P-3" value="" style="rounded=0;whiteSpace=wrap;html=1;" vertex="1" parent="1">
          <mxGeometry y="130" width="1100" height="40" as="geometry" />
        </mxCell>
        <mxCell id="ZyAtSVCC6lzZeVUkMO0P-2" value="" style="rounded=0;whiteSpace=wrap;html=1;fillColor=#f5f5f5;fontColor=#333333;strokeColor=#666666;" vertex="1" parent="1">
          <mxGeometry y="40" width="1100" height="90" as="geometry" />
        </mxCell>
        <mxCell id="ZyAtSVCC6lzZeVUkMO0P-1" value="" style="rounded=0;whiteSpace=wrap;html=1;" vertex="1" parent="1">
          <mxGeometry width="1100" height="40" as="geometry" />
        </mxCell>
        <mxCell id="YPrZ4P48iWF1rKAgXMPz-6" value="LOGO" style="rounded=1;whiteSpace=wrap;html=1;strokeColor=default;" vertex="1" parent="1">
          <mxGeometry x="130" y="55" width="120" height="60" as="geometry" />
        </mxCell>
        <mxCell id="YPrZ4P48iWF1rKAgXMPz-8" value="Buscador" style="rounded=1;whiteSpace=wrap;html=1;" vertex="1" parent="1">
          <mxGeometry x="300" y="70" width="400" height="30" as="geometry" />
        </mxCell>
        <mxCell id="YPrZ4P48iWF1rKAgXMPz-9" value="Telefono" style="text;html=1;align=center;verticalAlign=middle;whiteSpace=wrap;rounded=0;" vertex="1" parent="1">
          <mxGeometry x="660" y="10" width="60" height="30" as="geometry" />
        </mxCell>
        <mxCell id="YPrZ4P48iWF1rKAgXMPz-11" value="correo@correo.com" style="text;html=1;align=center;verticalAlign=middle;whiteSpace=wrap;rounded=0;" vertex="1" parent="1">
          <mxGeometry x="760" y="10" width="60" height="30" as="geometry" />
        </mxCell>
        <mxCell id="YPrZ4P48iWF1rKAgXMPz-12" value="Direccion" style="text;html=1;align=center;verticalAlign=middle;whiteSpace=wrap;rounded=0;" vertex="1" parent="1">
          <mxGeometry x="860" y="10" width="60" height="30" as="geometry" />
        </mxCell>
        <mxCell id="YPrZ4P48iWF1rKAgXMPz-14" value="" style="shape=sumEllipse;perimeter=ellipsePerimeter;whiteSpace=wrap;html=1;backgroundOutline=1;" vertex="1" parent="1">
          <mxGeometry x="740" y="70" width="30" height="30" as="geometry" />
        </mxCell>
        <mxCell id="YPrZ4P48iWF1rKAgXMPz-15" value="" style="shape=sumEllipse;perimeter=ellipsePerimeter;whiteSpace=wrap;html=1;backgroundOutline=1;" vertex="1" parent="1">
          <mxGeometry x="780" y="70" width="30" height="30" as="geometry" />
        </mxCell>
        <mxCell id="YPrZ4P48iWF1rKAgXMPz-16" value="" style="shape=sumEllipse;perimeter=ellipsePerimeter;whiteSpace=wrap;html=1;backgroundOutline=1;" vertex="1" parent="1">
          <mxGeometry x="820" y="70" width="30" height="30" as="geometry" />
        </mxCell>
        <mxCell id="YPrZ4P48iWF1rKAgXMPz-17" value="" style="shape=sumEllipse;perimeter=ellipsePerimeter;whiteSpace=wrap;html=1;backgroundOutline=1;" vertex="1" parent="1">
          <mxGeometry x="860" y="70" width="30" height="30" as="geometry" />
        </mxCell>
        <mxCell id="YPrZ4P48iWF1rKAgXMPz-18" value="" style="shape=sumEllipse;perimeter=ellipsePerimeter;whiteSpace=wrap;html=1;backgroundOutline=1;" vertex="1" parent="1">
          <mxGeometry x="900" y="70" width="30" height="30" as="geometry" />
        </mxCell>
        <mxCell id="YPrZ4P48iWF1rKAgXMPz-21" value="Menu Item 1" style="text;html=1;align=center;verticalAlign=middle;whiteSpace=wrap;rounded=0;" vertex="1" parent="1">
          <mxGeometry x="113" y="140" width="90" height="30" as="geometry" />
        </mxCell>
        <mxCell id="YPrZ4P48iWF1rKAgXMPz-22" value="Menu Item 2" style="text;html=1;align=center;verticalAlign=middle;whiteSpace=wrap;rounded=0;" vertex="1" parent="1">
          <mxGeometry x="245" y="140" width="90" height="30" as="geometry" />
        </mxCell>
        <mxCell id="YPrZ4P48iWF1rKAgXMPz-23" value="Menu Item 3" style="text;html=1;align=center;verticalAlign=middle;whiteSpace=wrap;rounded=0;" vertex="1" parent="1">
          <mxGeometry x="376" y="140" width="90" height="30" as="geometry" />
        </mxCell>
        <mxCell id="YPrZ4P48iWF1rKAgXMPz-24" value="Menu Item 4" style="text;html=1;align=center;verticalAlign=middle;whiteSpace=wrap;rounded=0;" vertex="1" parent="1">
          <mxGeometry x="508" y="140" width="90" height="30" as="geometry" />
        </mxCell>
        <mxCell id="YPrZ4P48iWF1rKAgXMPz-25" value="Menu Item 5" style="text;html=1;align=center;verticalAlign=middle;whiteSpace=wrap;rounded=0;" vertex="1" parent="1">
          <mxGeometry x="640" y="140" width="90" height="30" as="geometry" />
        </mxCell>
        <mxCell id="YPrZ4P48iWF1rKAgXMPz-26" value="Menu Item 6" style="text;html=1;align=center;verticalAlign=middle;whiteSpace=wrap;rounded=0;" vertex="1" parent="1">
          <mxGeometry x="771" y="140" width="90" height="30" as="geometry" />
        </mxCell>
        <mxCell id="YPrZ4P48iWF1rKAgXMPz-27" value="Menu Item 7" style="text;html=1;align=center;verticalAlign=middle;whiteSpace=wrap;rounded=0;" vertex="1" parent="1">
          <mxGeometry x="903" y="140" width="90" height="30" as="geometry" />
        </mxCell>
        <mxCell id="YPrZ4P48iWF1rKAgXMPz-28" value="" style="shape=ext;double=1;rounded=0;whiteSpace=wrap;html=1;" vertex="1" parent="1">
          <mxGeometry x="80" y="164" width="940" height="186" as="geometry" />
        </mxCell>
        <mxCell id="YPrZ4P48iWF1rKAgXMPz-36" value="" style="group" connectable="0" vertex="1" parent="1">
          <mxGeometry x="90" y="180" width="100" height="82" as="geometry" />
        </mxCell>
        <mxCell id="YPrZ4P48iWF1rKAgXMPz-29" value="Producto" style="text;html=1;align=center;verticalAlign=middle;whiteSpace=wrap;rounded=0;" vertex="1" parent="YPrZ4P48iWF1rKAgXMPz-36">
          <mxGeometry width="90" height="30" as="geometry" />
        </mxCell>
        <mxCell id="YPrZ4P48iWF1rKAgXMPz-30" value="* Item" style="text;html=1;align=center;verticalAlign=middle;whiteSpace=wrap;rounded=0;" vertex="1" parent="YPrZ4P48iWF1rKAgXMPz-36">
          <mxGeometry x="10" y="20" width="90" height="30" as="geometry" />
        </mxCell>
        <mxCell id="YPrZ4P48iWF1rKAgXMPz-31" value="* Item" style="text;html=1;align=center;verticalAlign=middle;whiteSpace=wrap;rounded=0;" vertex="1" parent="YPrZ4P48iWF1rKAgXMPz-36">
          <mxGeometry x="10" y="35" width="90" height="30" as="geometry" />
        </mxCell>
        <mxCell id="YPrZ4P48iWF1rKAgXMPz-32" value="* Item" style="text;html=1;align=center;verticalAlign=middle;whiteSpace=wrap;rounded=0;" vertex="1" parent="YPrZ4P48iWF1rKAgXMPz-36">
          <mxGeometry x="10" y="52" width="90" height="30" as="geometry" />
        </mxCell>
        <mxCell id="YPrZ4P48iWF1rKAgXMPz-37" value="" style="group" connectable="0" vertex="1" parent="1">
          <mxGeometry x="90" y="258" width="100" height="82" as="geometry" />
        </mxCell>
        <mxCell id="YPrZ4P48iWF1rKAgXMPz-38" value="Producto" style="text;html=1;align=center;verticalAlign=middle;whiteSpace=wrap;rounded=0;" vertex="1" parent="YPrZ4P48iWF1rKAgXMPz-37">
          <mxGeometry width="90" height="30" as="geometry" />
        </mxCell>
        <mxCell id="YPrZ4P48iWF1rKAgXMPz-39" value="* Item" style="text;html=1;align=center;verticalAlign=middle;whiteSpace=wrap;rounded=0;" vertex="1" parent="YPrZ4P48iWF1rKAgXMPz-37">
          <mxGeometry x="10" y="20" width="90" height="30" as="geometry" />
        </mxCell>
        <mxCell id="YPrZ4P48iWF1rKAgXMPz-40" value="* Item" style="text;html=1;align=center;verticalAlign=middle;whiteSpace=wrap;rounded=0;" vertex="1" parent="YPrZ4P48iWF1rKAgXMPz-37">
          <mxGeometry x="10" y="35" width="90" height="30" as="geometry" />
        </mxCell>
        <mxCell id="YPrZ4P48iWF1rKAgXMPz-41" value="* Item" style="text;html=1;align=center;verticalAlign=middle;whiteSpace=wrap;rounded=0;" vertex="1" parent="YPrZ4P48iWF1rKAgXMPz-37">
          <mxGeometry x="10" y="52" width="90" height="30" as="geometry" />
        </mxCell>
        <mxCell id="YPrZ4P48iWF1rKAgXMPz-42" value="" style="group" connectable="0" vertex="1" parent="1">
          <mxGeometry x="200" y="180" width="100" height="82" as="geometry" />
        </mxCell>
        <mxCell id="YPrZ4P48iWF1rKAgXMPz-43" value="Producto" style="text;html=1;align=center;verticalAlign=middle;whiteSpace=wrap;rounded=0;" vertex="1" parent="YPrZ4P48iWF1rKAgXMPz-42">
          <mxGeometry width="90" height="30" as="geometry" />
        </mxCell>
        <mxCell id="YPrZ4P48iWF1rKAgXMPz-44" value="* Item" style="text;html=1;align=center;verticalAlign=middle;whiteSpace=wrap;rounded=0;" vertex="1" parent="YPrZ4P48iWF1rKAgXMPz-42">
          <mxGeometry x="10" y="20" width="90" height="30" as="geometry" />
        </mxCell>
        <mxCell id="YPrZ4P48iWF1rKAgXMPz-45" value="* Item" style="text;html=1;align=center;verticalAlign=middle;whiteSpace=wrap;rounded=0;" vertex="1" parent="YPrZ4P48iWF1rKAgXMPz-42">
          <mxGeometry x="10" y="35" width="90" height="30" as="geometry" />
        </mxCell>
        <mxCell id="YPrZ4P48iWF1rKAgXMPz-46" value="* Item" style="text;html=1;align=center;verticalAlign=middle;whiteSpace=wrap;rounded=0;" vertex="1" parent="YPrZ4P48iWF1rKAgXMPz-42">
          <mxGeometry x="10" y="52" width="90" height="30" as="geometry" />
        </mxCell>
        <mxCell id="YPrZ4P48iWF1rKAgXMPz-47" value="" style="group" connectable="0" vertex="1" parent="1">
          <mxGeometry x="200" y="258" width="100" height="82" as="geometry" />
        </mxCell>
        <mxCell id="YPrZ4P48iWF1rKAgXMPz-48" value="Producto" style="text;html=1;align=center;verticalAlign=middle;whiteSpace=wrap;rounded=0;" vertex="1" parent="YPrZ4P48iWF1rKAgXMPz-47">
          <mxGeometry width="90" height="30" as="geometry" />
        </mxCell>
        <mxCell id="YPrZ4P48iWF1rKAgXMPz-49" value="* Item" style="text;html=1;align=center;verticalAlign=middle;whiteSpace=wrap;rounded=0;" vertex="1" parent="YPrZ4P48iWF1rKAgXMPz-47">
          <mxGeometry x="10" y="20" width="90" height="30" as="geometry" />
        </mxCell>
        <mxCell id="YPrZ4P48iWF1rKAgXMPz-50" value="* Item" style="text;html=1;align=center;verticalAlign=middle;whiteSpace=wrap;rounded=0;" vertex="1" parent="YPrZ4P48iWF1rKAgXMPz-47">
          <mxGeometry x="10" y="35" width="90" height="30" as="geometry" />
        </mxCell>
        <mxCell id="YPrZ4P48iWF1rKAgXMPz-51" value="* Item" style="text;html=1;align=center;verticalAlign=middle;whiteSpace=wrap;rounded=0;" vertex="1" parent="YPrZ4P48iWF1rKAgXMPz-47">
          <mxGeometry x="10" y="52" width="90" height="30" as="geometry" />
        </mxCell>
        <mxCell id="YPrZ4P48iWF1rKAgXMPz-52" value="" style="group" connectable="0" vertex="1" parent="1">
          <mxGeometry x="310" y="180" width="100" height="82" as="geometry" />
        </mxCell>
        <mxCell id="YPrZ4P48iWF1rKAgXMPz-53" value="Producto" style="text;html=1;align=center;verticalAlign=middle;whiteSpace=wrap;rounded=0;" vertex="1" parent="YPrZ4P48iWF1rKAgXMPz-52">
          <mxGeometry width="90" height="30" as="geometry" />
        </mxCell>
        <mxCell id="YPrZ4P48iWF1rKAgXMPz-54" value="* Item" style="text;html=1;align=center;verticalAlign=middle;whiteSpace=wrap;rounded=0;" vertex="1" parent="YPrZ4P48iWF1rKAgXMPz-52">
          <mxGeometry x="10" y="20" width="90" height="30" as="geometry" />
        </mxCell>
        <mxCell id="YPrZ4P48iWF1rKAgXMPz-55" value="* Item" style="text;html=1;align=center;verticalAlign=middle;whiteSpace=wrap;rounded=0;" vertex="1" parent="YPrZ4P48iWF1rKAgXMPz-52">
          <mxGeometry x="10" y="35" width="90" height="30" as="geometry" />
        </mxCell>
        <mxCell id="YPrZ4P48iWF1rKAgXMPz-56" value="* Item" style="text;html=1;align=center;verticalAlign=middle;whiteSpace=wrap;rounded=0;" vertex="1" parent="YPrZ4P48iWF1rKAgXMPz-52">
          <mxGeometry x="10" y="52" width="90" height="30" as="geometry" />
        </mxCell>
        <mxCell id="YPrZ4P48iWF1rKAgXMPz-57" value="" style="group" connectable="0" vertex="1" parent="1">
          <mxGeometry x="310" y="258" width="100" height="82" as="geometry" />
        </mxCell>
        <mxCell id="YPrZ4P48iWF1rKAgXMPz-58" value="Producto" style="text;html=1;align=center;verticalAlign=middle;whiteSpace=wrap;rounded=0;" vertex="1" parent="YPrZ4P48iWF1rKAgXMPz-57">
          <mxGeometry width="90" height="30" as="geometry" />
        </mxCell>
        <mxCell id="YPrZ4P48iWF1rKAgXMPz-59" value="* Item" style="text;html=1;align=center;verticalAlign=middle;whiteSpace=wrap;rounded=0;" vertex="1" parent="YPrZ4P48iWF1rKAgXMPz-57">
          <mxGeometry x="10" y="20" width="90" height="30" as="geometry" />
        </mxCell>
        <mxCell id="YPrZ4P48iWF1rKAgXMPz-60" value="* Item" style="text;html=1;align=center;verticalAlign=middle;whiteSpace=wrap;rounded=0;" vertex="1" parent="YPrZ4P48iWF1rKAgXMPz-57">
          <mxGeometry x="10" y="35" width="90" height="30" as="geometry" />
        </mxCell>
        <mxCell id="YPrZ4P48iWF1rKAgXMPz-61" value="* Item" style="text;html=1;align=center;verticalAlign=middle;whiteSpace=wrap;rounded=0;" vertex="1" parent="YPrZ4P48iWF1rKAgXMPz-57">
          <mxGeometry x="10" y="52" width="90" height="30" as="geometry" />
        </mxCell>
        <mxCell id="YPrZ4P48iWF1rKAgXMPz-62" value="" style="group" connectable="0" vertex="1" parent="1">
          <mxGeometry x="420" y="180" width="100" height="82" as="geometry" />
        </mxCell>
        <mxCell id="YPrZ4P48iWF1rKAgXMPz-63" value="Producto" style="text;html=1;align=center;verticalAlign=middle;whiteSpace=wrap;rounded=0;" vertex="1" parent="YPrZ4P48iWF1rKAgXMPz-62">
          <mxGeometry width="90" height="30" as="geometry" />
        </mxCell>
        <mxCell id="YPrZ4P48iWF1rKAgXMPz-64" value="* Item" style="text;html=1;align=center;verticalAlign=middle;whiteSpace=wrap;rounded=0;" vertex="1" parent="YPrZ4P48iWF1rKAgXMPz-62">
          <mxGeometry x="10" y="20" width="90" height="30" as="geometry" />
        </mxCell>
        <mxCell id="YPrZ4P48iWF1rKAgXMPz-65" value="* Item" style="text;html=1;align=center;verticalAlign=middle;whiteSpace=wrap;rounded=0;" vertex="1" parent="YPrZ4P48iWF1rKAgXMPz-62">
          <mxGeometry x="10" y="35" width="90" height="30" as="geometry" />
        </mxCell>
        <mxCell id="YPrZ4P48iWF1rKAgXMPz-66" value="* Item" style="text;html=1;align=center;verticalAlign=middle;whiteSpace=wrap;rounded=0;" vertex="1" parent="YPrZ4P48iWF1rKAgXMPz-62">
          <mxGeometry x="10" y="52" width="90" height="30" as="geometry" />
        </mxCell>
        <mxCell id="YPrZ4P48iWF1rKAgXMPz-67" value="" style="group" connectable="0" vertex="1" parent="1">
          <mxGeometry x="420" y="258" width="100" height="82" as="geometry" />
        </mxCell>
        <mxCell id="YPrZ4P48iWF1rKAgXMPz-68" value="Producto" style="text;html=1;align=center;verticalAlign=middle;whiteSpace=wrap;rounded=0;" vertex="1" parent="YPrZ4P48iWF1rKAgXMPz-67">
          <mxGeometry width="90" height="30" as="geometry" />
        </mxCell>
        <mxCell id="YPrZ4P48iWF1rKAgXMPz-69" value="* Item" style="text;html=1;align=center;verticalAlign=middle;whiteSpace=wrap;rounded=0;" vertex="1" parent="YPrZ4P48iWF1rKAgXMPz-67">
          <mxGeometry x="10" y="20" width="90" height="30" as="geometry" />
        </mxCell>
        <mxCell id="YPrZ4P48iWF1rKAgXMPz-70" value="* Item" style="text;html=1;align=center;verticalAlign=middle;whiteSpace=wrap;rounded=0;" vertex="1" parent="YPrZ4P48iWF1rKAgXMPz-67">
          <mxGeometry x="10" y="35" width="90" height="30" as="geometry" />
        </mxCell>
        <mxCell id="YPrZ4P48iWF1rKAgXMPz-71" value="* Item" style="text;html=1;align=center;verticalAlign=middle;whiteSpace=wrap;rounded=0;" vertex="1" parent="YPrZ4P48iWF1rKAgXMPz-67">
          <mxGeometry x="10" y="52" width="90" height="30" as="geometry" />
        </mxCell>
        <mxCell id="YPrZ4P48iWF1rKAgXMPz-153" value="Contacto" style="text;html=1;align=center;verticalAlign=middle;whiteSpace=wrap;rounded=0;" vertex="1" parent="1">
          <mxGeometry x="252.5" y="885" width="110" height="30" as="geometry" />
        </mxCell>
        <mxCell id="YPrZ4P48iWF1rKAgXMPz-156" value="datos del sitio" style="text;html=1;align=center;verticalAlign=middle;whiteSpace=wrap;rounded=0;" vertex="1" parent="1">
          <mxGeometry x="252.5" y="915" width="110" height="30" as="geometry" />
        </mxCell>
        <mxCell id="YPrZ4P48iWF1rKAgXMPz-157" value="datos del sitio" style="text;html=1;align=center;verticalAlign=middle;whiteSpace=wrap;rounded=0;" vertex="1" parent="1">
          <mxGeometry x="252.5" y="937" width="110" height="30" as="geometry" />
        </mxCell>
        <mxCell id="YPrZ4P48iWF1rKAgXMPz-158" value="datos del sitio" style="text;html=1;align=center;verticalAlign=middle;whiteSpace=wrap;rounded=0;" vertex="1" parent="1">
          <mxGeometry x="252.5" y="959" width="110" height="30" as="geometry" />
        </mxCell>
        <mxCell id="YPrZ4P48iWF1rKAgXMPz-159" value="datos del sitio" style="text;html=1;align=center;verticalAlign=middle;whiteSpace=wrap;rounded=0;" vertex="1" parent="1">
          <mxGeometry x="252.5" y="981" width="110" height="30" as="geometry" />
        </mxCell>
        <mxCell id="YPrZ4P48iWF1rKAgXMPz-160" value="datos del sitio" style="text;html=1;align=center;verticalAlign=middle;whiteSpace=wrap;rounded=0;" vertex="1" parent="1">
          <mxGeometry x="252.5" y="1003" width="110" height="30" as="geometry" />
        </mxCell>
        <mxCell id="YPrZ4P48iWF1rKAgXMPz-161" value="datos del sitio" style="text;html=1;align=center;verticalAlign=middle;whiteSpace=wrap;rounded=0;" vertex="1" parent="1">
          <mxGeometry x="252.5" y="1025" width="110" height="30" as="geometry" />
        </mxCell>
        <mxCell id="YPrZ4P48iWF1rKAgXMPz-162" value="datos del sitio" style="text;html=1;align=center;verticalAlign=middle;whiteSpace=wrap;rounded=0;" vertex="1" parent="1">
          <mxGeometry x="547.5" y="915" width="110" height="30" as="geometry" />
        </mxCell>
        <mxCell id="YPrZ4P48iWF1rKAgXMPz-163" value="datos del sitio" style="text;html=1;align=center;verticalAlign=middle;whiteSpace=wrap;rounded=0;" vertex="1" parent="1">
          <mxGeometry x="547.5" y="937" width="110" height="30" as="geometry" />
        </mxCell>
        <mxCell id="YPrZ4P48iWF1rKAgXMPz-164" value="datos del sitio" style="text;html=1;align=center;verticalAlign=middle;whiteSpace=wrap;rounded=0;" vertex="1" parent="1">
          <mxGeometry x="547.5" y="959" width="110" height="30" as="geometry" />
        </mxCell>
        <mxCell id="YPrZ4P48iWF1rKAgXMPz-165" value="datos del sitio" style="text;html=1;align=center;verticalAlign=middle;whiteSpace=wrap;rounded=0;" vertex="1" parent="1">
          <mxGeometry x="547.5" y="981" width="110" height="30" as="geometry" />
        </mxCell>
        <mxCell id="YPrZ4P48iWF1rKAgXMPz-166" value="datos del sitio" style="text;html=1;align=center;verticalAlign=middle;whiteSpace=wrap;rounded=0;" vertex="1" parent="1">
          <mxGeometry x="547.5" y="1003" width="110" height="30" as="geometry" />
        </mxCell>
        <mxCell id="YPrZ4P48iWF1rKAgXMPz-167" value="Contacto WEB" style="text;html=1;align=center;verticalAlign=middle;whiteSpace=wrap;rounded=0;" vertex="1" parent="1">
          <mxGeometry x="547.5" y="885" width="110" height="30" as="geometry" />
        </mxCell>
        <mxCell id="ZyAtSVCC6lzZeVUkMO0P-6" value="" style="shape=sumEllipse;perimeter=ellipsePerimeter;whiteSpace=wrap;html=1;backgroundOutline=1;" vertex="1" parent="1">
          <mxGeometry x="864" y="1020" width="26" height="26" as="geometry" />
        </mxCell>
        <mxCell id="ZyAtSVCC6lzZeVUkMO0P-7" value="" style="shape=sumEllipse;perimeter=ellipsePerimeter;whiteSpace=wrap;html=1;backgroundOutline=1;" vertex="1" parent="1">
          <mxGeometry x="798.5" y="1020" width="26" height="26" as="geometry" />
        </mxCell>
        <mxCell id="ZyAtSVCC6lzZeVUkMO0P-8" value="" style="shape=sumEllipse;perimeter=ellipsePerimeter;whiteSpace=wrap;html=1;backgroundOutline=1;" vertex="1" parent="1">
          <mxGeometry x="831" y="1020" width="26" height="26" as="geometry" />
        </mxCell>
        <mxCell id="ZyAtSVCC6lzZeVUkMO0P-11" value="/ Home / Categoría / Producto / Detalle ...." style="text;html=1;align=center;verticalAlign=middle;whiteSpace=wrap;rounded=0;" vertex="1" parent="1">
          <mxGeometry x="79" y="360" width="265" height="30" as="geometry" />
        </mxCell>
        <mxCell id="ZyAtSVCC6lzZeVUkMO0P-13" value="Guardar Pedido" style="text;html=1;align=right;verticalAlign=middle;whiteSpace=wrap;rounded=0;fontStyle=1;fontSize=24;" vertex="1" parent="1">
          <mxGeometry x="830" y="400" width="211" height="30" as="geometry" />
        </mxCell>
        <mxCell id="QQcn5EloVubQ2tBEO6B_-6" value="" style="group" connectable="0" vertex="1" parent="1">
          <mxGeometry x="100" y="430" width="837" height="120" as="geometry" />
        </mxCell>
        <mxCell id="ZyAtSVCC6lzZeVUkMO0P-14" value="Total" style="text;html=1;align=left;verticalAlign=middle;whiteSpace=wrap;rounded=0;fontSize=20;" vertex="1" parent="QQcn5EloVubQ2tBEO6B_-6">
          <mxGeometry x="742" y="15" width="90" height="30" as="geometry" />
        </mxCell>
        <mxCell id="ZyAtSVCC6lzZeVUkMO0P-15" value="&lt;div&gt;$ 10000&lt;/div&gt;" style="text;html=1;align=left;verticalAlign=middle;whiteSpace=wrap;rounded=0;fontSize=20;" vertex="1" parent="QQcn5EloVubQ2tBEO6B_-6">
          <mxGeometry x="747" y="45" width="90" height="30" as="geometry" />
        </mxCell>
        <mxCell id="ZyAtSVCC6lzZeVUkMO0P-27" value="" style="verticalLabelPosition=bottom;shadow=0;dashed=0;align=center;html=1;verticalAlign=top;strokeWidth=1;shape=mxgraph.mockup.graphics.simpleIcon;strokeColor=#999999;" vertex="1" parent="QQcn5EloVubQ2tBEO6B_-6">
          <mxGeometry width="120" height="120" as="geometry" />
        </mxCell>
        <mxCell id="QQcn5EloVubQ2tBEO6B_-1" value="Producto" style="text;html=1;align=center;verticalAlign=middle;whiteSpace=wrap;rounded=0;fontStyle=1;fontSize=17;" vertex="1" parent="QQcn5EloVubQ2tBEO6B_-6">
          <mxGeometry x="154.5" width="60" height="30" as="geometry" />
        </mxCell>
        <mxCell id="QQcn5EloVubQ2tBEO6B_-3" value="Eliminar" style="text;html=1;align=center;verticalAlign=middle;whiteSpace=wrap;rounded=0;fillColor=#f8cecc;strokeColor=#b85450;" vertex="1" parent="QQcn5EloVubQ2tBEO6B_-6">
          <mxGeometry x="152" y="90" width="60" height="30" as="geometry" />
        </mxCell>
        <mxCell id="QQcn5EloVubQ2tBEO6B_-4" value="Información necesaria del producto seleccionado" style="text;html=1;align=left;verticalAlign=middle;whiteSpace=wrap;rounded=0;" vertex="1" parent="QQcn5EloVubQ2tBEO6B_-6">
          <mxGeometry x="147" y="35" width="227.5" height="30" as="geometry" />
        </mxCell>
        <mxCell id="QQcn5EloVubQ2tBEO6B_-5" value="" style="group" connectable="0" vertex="1" parent="QQcn5EloVubQ2tBEO6B_-6">
          <mxGeometry x="504" y="45" width="128" height="30" as="geometry" />
        </mxCell>
        <mxCell id="ZyAtSVCC6lzZeVUkMO0P-20" value="" style="rounded=0;whiteSpace=wrap;html=1;fontSize=11;" vertex="1" parent="QQcn5EloVubQ2tBEO6B_-5">
          <mxGeometry y="7.5" width="25" height="10" as="geometry" />
        </mxCell>
        <mxCell id="ZyAtSVCC6lzZeVUkMO0P-21" value="" style="shape=cross;whiteSpace=wrap;html=1;fontSize=11;" vertex="1" parent="QQcn5EloVubQ2tBEO6B_-5">
          <mxGeometry x="103" width="25" height="25" as="geometry" />
        </mxCell>
        <mxCell id="ZyAtSVCC6lzZeVUkMO0P-23" value="1" style="text;html=1;align=center;verticalAlign=middle;whiteSpace=wrap;rounded=0;fontStyle=1;fontSize=19;" vertex="1" parent="QQcn5EloVubQ2tBEO6B_-5">
          <mxGeometry x="35" width="60" height="30" as="geometry" />
        </mxCell>
        <mxCell id="QQcn5EloVubQ2tBEO6B_-7" value="" style="group" connectable="0" vertex="1" parent="1">
          <mxGeometry x="98" y="570" width="837" height="120" as="geometry" />
        </mxCell>
        <mxCell id="QQcn5EloVubQ2tBEO6B_-8" value="Total" style="text;html=1;align=left;verticalAlign=middle;whiteSpace=wrap;rounded=0;fontSize=20;" vertex="1" parent="QQcn5EloVubQ2tBEO6B_-7">
          <mxGeometry x="742" y="15" width="90" height="30" as="geometry" />
        </mxCell>
        <mxCell id="QQcn5EloVubQ2tBEO6B_-9" value="&lt;div&gt;$ 10000&lt;/div&gt;" style="text;html=1;align=left;verticalAlign=middle;whiteSpace=wrap;rounded=0;fontSize=20;" vertex="1" parent="QQcn5EloVubQ2tBEO6B_-7">
          <mxGeometry x="747" y="45" width="90" height="30" as="geometry" />
        </mxCell>
        <mxCell id="QQcn5EloVubQ2tBEO6B_-10" value="" style="verticalLabelPosition=bottom;shadow=0;dashed=0;align=center;html=1;verticalAlign=top;strokeWidth=1;shape=mxgraph.mockup.graphics.simpleIcon;strokeColor=#999999;" vertex="1" parent="QQcn5EloVubQ2tBEO6B_-7">
          <mxGeometry width="120" height="120" as="geometry" />
        </mxCell>
        <mxCell id="QQcn5EloVubQ2tBEO6B_-11" value="Producto" style="text;html=1;align=center;verticalAlign=middle;whiteSpace=wrap;rounded=0;fontStyle=1;fontSize=17;" vertex="1" parent="QQcn5EloVubQ2tBEO6B_-7">
          <mxGeometry x="154.5" width="60" height="30" as="geometry" />
        </mxCell>
        <mxCell id="QQcn5EloVubQ2tBEO6B_-12" value="Eliminar" style="text;html=1;align=center;verticalAlign=middle;whiteSpace=wrap;rounded=0;fillColor=#f8cecc;strokeColor=#b85450;" vertex="1" parent="QQcn5EloVubQ2tBEO6B_-7">
          <mxGeometry x="152" y="90" width="60" height="30" as="geometry" />
        </mxCell>
        <mxCell id="QQcn5EloVubQ2tBEO6B_-13" value="Información necesaria del producto seleccionado" style="text;html=1;align=left;verticalAlign=middle;whiteSpace=wrap;rounded=0;" vertex="1" parent="QQcn5EloVubQ2tBEO6B_-7">
          <mxGeometry x="147" y="35" width="227.5" height="30" as="geometry" />
        </mxCell>
        <mxCell id="QQcn5EloVubQ2tBEO6B_-14" value="" style="group" connectable="0" vertex="1" parent="QQcn5EloVubQ2tBEO6B_-7">
          <mxGeometry x="504" y="45" width="128" height="30" as="geometry" />
        </mxCell>
        <mxCell id="QQcn5EloVubQ2tBEO6B_-15" value="" style="rounded=0;whiteSpace=wrap;html=1;fontSize=11;" vertex="1" parent="QQcn5EloVubQ2tBEO6B_-14">
          <mxGeometry y="7.5" width="25" height="10" as="geometry" />
        </mxCell>
        <mxCell id="QQcn5EloVubQ2tBEO6B_-16" value="" style="shape=cross;whiteSpace=wrap;html=1;fontSize=11;" vertex="1" parent="QQcn5EloVubQ2tBEO6B_-14">
          <mxGeometry x="103" width="25" height="25" as="geometry" />
        </mxCell>
        <mxCell id="QQcn5EloVubQ2tBEO6B_-17" value="1" style="text;html=1;align=center;verticalAlign=middle;whiteSpace=wrap;rounded=0;fontStyle=1;fontSize=19;" vertex="1" parent="QQcn5EloVubQ2tBEO6B_-14">
          <mxGeometry x="35" width="60" height="30" as="geometry" />
        </mxCell>
        <mxCell id="QQcn5EloVubQ2tBEO6B_-29" value="Total" style="text;html=1;align=right;verticalAlign=middle;whiteSpace=wrap;rounded=0;fontStyle=1;fontSize=24;" vertex="1" parent="1">
          <mxGeometry x="800" y="740" width="68.5" height="30" as="geometry" />
        </mxCell>
        <mxCell id="QQcn5EloVubQ2tBEO6B_-30" value="$2000" style="text;html=1;align=right;verticalAlign=middle;whiteSpace=wrap;rounded=0;fontStyle=1;fontSize=24;" vertex="1" parent="1">
          <mxGeometry x="890" y="740" width="68.5" height="30" as="geometry" />
        </mxCell>
        <mxCell id="QQcn5EloVubQ2tBEO6B_-34" value="Vaciar Carrito" style="rounded=0;whiteSpace=wrap;html=1;fillColor=#f8cecc;strokeColor=#b85450;" vertex="1" parent="1">
          <mxGeometry x="540" y="810" width="180" height="40" as="geometry" />
        </mxCell>
        <mxCell id="QQcn5EloVubQ2tBEO6B_-35" value="Cupon" style="rounded=0;whiteSpace=wrap;html=1;fillColor=#f8cecc;strokeColor=#b85450;" vertex="1" parent="1">
          <mxGeometry x="730" y="810" width="180" height="40" as="geometry" />
        </mxCell>
        <mxCell id="QQcn5EloVubQ2tBEO6B_-36" value="Finalizar Compra" style="rounded=0;whiteSpace=wrap;html=1;fillColor=#d5e8d4;strokeColor=#82b366;" vertex="1" parent="1">
          <mxGeometry x="920" y="810" width="180" height="40" as="geometry" />
        </mxCell>
      </root>
    </mxGraphModel>
  </diagram>
</mxfile>
